<svg xmlns="http://www.w3.org/2000/svg" xmlns:xlink="http://www.w3.org/1999/xlink" viewBox="0 0 741.1 520"><defs><clipPath id="a" transform="translate(-65.1 -51)"><rect x="65.1" y="51" width="741.1" height="520" style="fill:none"/></clipPath></defs><polygon points="163.9 269.3 0 518.5 141.6 518.5 305.5 269.3 163.9 269.3" style="fill:#00539f"/><g style="clip-path:url(#a)"><path d="M798.8,146.4a24.4,24.4,0,0,1-17.6,7,24.8,24.8,0,0,1-25-25,23.8,23.8,0,0,1,7.8-18.2,24.8,24.8,0,0,1,17.2-6.8,23.9,23.9,0,0,1,17.7,7.3,25.1,25.1,0,0,1-.1,35.7m-32.2-32.5a20,20,0,0,0-6,14.5,20.7,20.7,0,0,0,20.6,20.9,20,20,0,0,0,14.6-6.1,20.6,20.6,0,0,0,6.1-14.8,20.1,20.1,0,0,0-6.1-14.5,20.3,20.3,0,0,0-29.2,0m3.7,28.4V114.6h13.4a12.7,12.7,0,0,1,5.5,1.4,7,7,0,0,1,3.7,6.6,6.3,6.3,0,0,1-2,5.1,9.3,9.3,0,0,1-4.8,1.8,10.1,10.1,0,0,1,4,1.6q2.4,2,2.4,6.3v2.4a1.9,1.9,0,0,0,.1.8,2.9,2.9,0,0,0,.2.9l.2.7h-6.9a22,22,0,0,1-.5-3.8,11.4,11.4,0,0,0-.4-3.4,3.5,3.5,0,0,0-2.1-2,6.2,6.2,0,0,0-2.4-.5h-3.1v9.8Zm13.2-22.2a11.7,11.7,0,0,0-4.2-.6h-1.7v8h2.8a6.3,6.3,0,0,0,3.9-1,3.7,3.7,0,0,0,1.5-3.3,3.2,3.2,0,0,0-2.3-3.1" transform="translate(-65.1 -51)" style="fill:#00539f"/><polygon points="342.7 371.3 333.2 371.3 341.2 333.5 327.3 333.5 329 325.4 366.3 325.4 364.6 333.5 350.7 333.5 342.7 371.3" style="fill:#00539f"/><path d="M450,412.3a18.7,18.7,0,0,1-17.2,10.8c-9.6,0-15.9-4.5-13-18.5.9-4.1,5.1-17.2,20-17.2,6.7,0,15.2,3.2,11.9,18.7l-.3,1.6H428.1c-.3,2.6-1,8.3,6.2,8.3a7.6,7.6,0,0,0,6.6-3.7Zm-6.6-10.4c.7-5.5-2.5-7.2-5.3-7.2s-7,2.7-8.5,7.2Z" transform="translate(-65.1 -51)" style="fill:#00539f"/><polygon points="416.7 371.3 405.7 371.3 402 361 393.9 371.3 383.1 371.3 398.4 353.9 390.8 337.3 401.6 337.3 405.3 347.2 413 337.3 423.5 337.3 408.8 353.9 416.7 371.3" style="fill:#00539f"/><path d="M514.3,415.6c-.9,4-.1,4.9.9,5.3l-.3,1.4h-9.6a14,14,0,0,1,0-4.1c-2.5,2.1-6,4.9-12.1,4.9s-9.7-2.8-8.2-9.8,6.4-10.1,12.2-10.9l8.3-1.2c1.5-.2,3.3-.8,3.7-2.7.8-3.8-2.7-3.9-5-3.9-4.5,0-5.9,2.7-6.5,4.7h-8.6c3.2-10.4,10.7-11.9,17.7-11.9,4.8,0,13.2,1.5,11.4,9.8Zm-6.6-9.9c-1.1.7-2.7,1.3-6.5,1.9s-6.3,1.4-7.1,5.1,1.5,4.1,3.2,4.1c4,0,8.6-2.6,9.4-6.7Z" transform="translate(-65.1 -51)" style="fill:#00539f"/><path d="M543.6,398.6c.1-2.1-.2-4.4-5.1-4.4s-5.8,1.8-6.2,3.3c-1.1,5.4,21,1.5,18.3,14-2.1,9.9-12,11.6-17.3,11.6-7.8,0-15.5-2.6-13.9-11.7h9.2c-.6,2.9.7,5,6.4,5s6.1-2.3,6.4-3.5c1.2-5.7-20.8-1.4-18.1-14.1,1.1-5,5.6-11.4,16.2-11.4,6.6,0,14.2,1.7,12.8,11.2Z" transform="translate(-65.1 -51)" style="fill:#00539f"/><path d="M321.5,444.2h20.2c15.5,0,15.9,13.1,14,21.8s-8.9,24-24.1,24H311.8Zm1.3,37.9h9.4c7.7,0,12-7.8,13.6-15.4,2.9-13.5-3.3-14.6-7.4-14.6h-9.2Z" transform="translate(-65.1 -51)" style="fill:#00539f"/><path d="M386.9,480.1a19,19,0,0,1-17.2,10.8c-9.6,0-16-4.6-13-18.6.9-4,5.1-17.1,19.9-17.1,6.7,0,15.3,3.2,12,18.7l-.3,1.6H365c-.3,2.5-1,8.3,6.2,8.3a7.3,7.3,0,0,0,6.5-3.7Zm-6.6-10.4c.7-5.5-2.5-7.2-5.4-7.2s-7,2.7-8.4,7.2Z" transform="translate(-65.1 -51)" style="fill:#00539f"/><path d="M404.1,461h.1c2.3-2.7,5.4-5.8,11.4-5.8,7.5,0,12.9,5.7,10.4,17.5-2,9.3-8.1,18.2-18.2,18.2-6.2,0-7.7-3.4-8.4-5.2h-.1l-3.8,17.5h-8.9l10-47.1h8.6Zm3.1,22.6c5.7,0,8.6-6.3,9.5-10.3s.3-10.4-5.4-10.4-8.7,5.5-9.9,10.9.1,9.8,5.8,9.8" transform="translate(-65.1 -51)" style="fill:#00539f"/><path d="M456,483.4c-.9,4-.2,4.9.8,5.3l-.3,1.3h-9.6a13.4,13.4,0,0,1,0-4c-2.5,2.1-5.9,4.9-12,4.9s-9.7-2.9-8.2-9.9,6.3-10,12.2-10.8l8.3-1.2c1.4-.2,3.3-.8,3.7-2.7.8-3.8-2.8-4-5.1-4-4.4,0-5.8,2.8-6.5,4.7h-8.6c3.3-10.4,10.8-11.8,17.7-11.8,4.8,0,13.3,1.4,11.5,9.8Zm-6.7-9.9c-1,.7-2.6,1.3-6.4,1.8s-6.4,1.4-7.2,5.1,1.6,4.1,3.3,4.1c4,0,8.5-2.5,9.4-6.7Z" transform="translate(-65.1 -51)" style="fill:#00539f"/><path d="M468.2,456.1h8.5l-1.2,5.8h.1c2.6-3.4,5.3-6.7,10.7-6.7H488l-1.9,9.1a10.1,10.1,0,0,0-2.5-.2c-7,0-9.2,4.4-9.9,8.1L469.9,490H461Z" transform="translate(-65.1 -51)" style="fill:#00539f"/><path d="M502.8,456.1h5.6l-1.4,6.3h-5.5l-4,18.5c-.4,2-.5,2.7,3.2,2.7h1.8l-1.4,6.8h-5.4c-7.7,0-8.5-2.9-7.6-7.3l4.4-20.7h-4.6l1.4-6.3h4.6l1.9-9.2h9Z" transform="translate(-65.1 -51)" style="fill:#00539f"/><path d="M553.9,490h-9l4.4-20.6c1.1-5-.8-6.7-3.4-6.7-4.5,0-6.7,2.9-7.6,7L534,490h-8.9l4.3-20.4c.6-2.9,1.5-6.9-3.9-6.9s-6.2,2.9-6.9,6.6L514.2,490h-9l7.3-33.9H521l-1.1,4.9h.2a13.1,13.1,0,0,1,10.9-5.8c4.9,0,6.7,1.8,8.2,5.4,1.6-1.7,4.8-5.4,10.3-5.4s11,3.9,9.4,11.3Z" transform="translate(-65.1 -51)" style="fill:#00539f"/><path d="M591.8,480.1a19,19,0,0,1-17.2,10.8c-9.6,0-16-4.6-13-18.6.9-4,5-17.1,19.9-17.1,6.7,0,15.3,3.2,12,18.7l-.3,1.6H569.9c-.3,2.5-1,8.3,6.2,8.3a7.3,7.3,0,0,0,6.5-3.7Zm-6.6-10.4c.7-5.5-2.5-7.2-5.4-7.2s-7,2.7-8.4,7.2Z" transform="translate(-65.1 -51)" style="fill:#00539f"/><path d="M625.2,490h-9l4.4-20.6c.5-2.5,1.3-6.7-4.4-6.7-3.9,0-7.5,2.7-8.6,7.9L603.4,490h-8.9l7.2-33.9h8.5l-1,4.9h.1c1.7-2,5-5.8,11.5-5.8s11,3.9,9.4,11.3Z" transform="translate(-65.1 -51)" style="fill:#00539f"/><path d="M649.2,456.1h5.5l-1.3,6.3h-5.6l-3.9,18.5c-.4,2-.5,2.7,3.1,2.7h1.9l-1.4,6.8h-5.4c-7.7,0-8.5-2.9-7.6-7.3l4.4-20.7h-4.6l1.3-6.3h4.6l2-9.2h8.9Z" transform="translate(-65.1 -51)" style="fill:#00539f"/><path d="M270.5,558.7c-9.1,0-16.2-5.6-13.6-17.9s12-17.9,21.2-17.9,16.1,5.7,13.5,17.9-12,17.9-21.1,17.9m6-28.2c-6.9,0-9.5,6-10.4,10.3s-.9,10.4,6,10.4,9.4-6,10.3-10.4,1-10.3-5.9-10.3" transform="translate(-65.1 -51)" style="fill:#00539f"/><path d="M303.1,557.8h-8.9l5.8-27.6h-4.9l1.4-6.4h4.9l.6-2.7c1.4-7,5.9-9.7,12-9.7h4.5l-1.5,7.2h-2.5c-3.1,0-3.3,1-3.9,3.8l-.3,1.3h5.8l-1.3,6.4h-5.9Z" transform="translate(-65.1 -51)" style="fill:#00539f"/><polygon points="283.7 506.8 274.2 506.8 282.2 469.1 268.3 469.1 270.1 461 307.3 461 305.6 469.1 291.8 469.1 283.7 506.8" style="fill:#00539f"/><path d="M367.6,523.8h8.5l-1.2,5.9h.1c2.6-3.4,5.3-6.8,10.7-6.8l1.7.2-1.9,9H383c-7,0-9.2,4.3-10,8.1l-3.7,17.7h-9Z" transform="translate(-65.1 -51)" style="fill:#00539f"/><path d="M412.6,551.2c-.8,4-.1,4.9.9,5.2l-.3,1.4h-9.6a13.4,13.4,0,0,1,0-4c-2.5,2.1-6,4.9-12,4.9s-9.8-2.9-8.3-9.9,6.4-10,12.2-10.9l8.3-1.2c1.5-.2,3.3-.7,3.7-2.7.8-3.7-2.7-3.9-5-3.9-4.5,0-5.8,2.7-6.5,4.7h-8.6c3.2-10.4,10.7-11.9,17.7-11.9,4.8,0,13.2,1.5,11.4,9.9Zm-6.6-9.9c-1.1.7-2.6,1.2-6.5,1.8s-6.3,1.4-7.1,5.1,1.5,4.1,3.3,4.1c3.9,0,8.5-2.6,9.4-6.7Z" transform="translate(-65.1 -51)" style="fill:#00539f"/><path d="M448.4,557.8h-9l4.4-20.6c.5-2.5,1.3-6.7-4.4-6.7-3.9,0-7.6,2.7-8.7,7.8l-4.1,19.5h-8.9l7.2-34h8.5l-1,5h.1c1.7-2,5-5.9,11.5-5.9s10.9,3.9,9.4,11.4Z" transform="translate(-65.1 -51)" style="fill:#00539f"/><path d="M479.4,534.2c0-2.2-.2-4.5-5.1-4.5s-5.9,1.9-6.2,3.3c-1.1,5.4,21,1.5,18.3,14-2.1,9.9-12,11.7-17.4,11.7-7.7,0-15.5-2.7-13.8-11.8h9.2c-.6,2.9.7,5,6.3,5s6.2-2.2,6.5-3.5c1.2-5.7-20.8-1.4-18.1-14.1,1.1-5,5.5-11.4,16.1-11.4,6.7,0,14.2,1.7,12.9,11.3Z" transform="translate(-65.1 -51)" style="fill:#00539f"/><path d="M503.6,528.8h.2c2.2-2.7,5.3-5.9,11.3-5.9,7.5,0,12.9,5.8,10.4,17.5-2,9.3-8.1,18.3-18.2,18.3-6.2,0-7.7-3.4-8.4-5.2h-.2L495,571h-8.9l10-47.2h8.6Zm3.1,22.5c5.7,0,8.6-6.2,9.5-10.2s.3-10.4-5.4-10.4-8.7,5.5-9.9,10.9.1,9.7,5.8,9.7" transform="translate(-65.1 -51)" style="fill:#00539f"/><path d="M541.7,558.7c-9.1,0-16.1-5.6-13.5-17.9s12-17.9,21.1-17.9,16.2,5.7,13.6,17.9-12,17.9-21.2,17.9m6-28.2c-6.8,0-9.4,6-10.3,10.3s-.9,10.4,5.9,10.4,9.5-6,10.4-10.4.9-10.3-6-10.3" transform="translate(-65.1 -51)" style="fill:#00539f"/><path d="M571.2,523.8h8.5l-1.2,5.9h.1c2.6-3.4,5.3-6.8,10.8-6.8l1.7.2-2,9h-2.5c-6.9,0-9.1,4.3-9.9,8.1l-3.8,17.7H564Z" transform="translate(-65.1 -51)" style="fill:#00539f"/><path d="M605.8,523.8h5.6l-1.4,6.4h-5.5l-3.9,18.5c-.5,1.9-.6,2.7,3.1,2.7h1.8l-1.4,6.7-4.2.2h-1.2c-7.7,0-8.5-3-7.5-7.4l4.3-20.6h-4.6l1.4-6.4h4.6l1.9-9.2h9Z" transform="translate(-65.1 -51)" style="fill:#00539f"/><path d="M637.2,551.2c-.8,4-.1,4.9.9,5.2l-.3,1.4h-9.6a13.4,13.4,0,0,1,0-4c-2.5,2.1-6,4.9-12,4.9s-9.8-2.9-8.3-9.9,6.4-10,12.2-10.9l8.3-1.2c1.5-.2,3.3-.7,3.7-2.7.8-3.7-2.7-3.9-5-3.9-4.5,0-5.8,2.7-6.5,4.7H612c3.2-10.4,10.7-11.9,17.7-11.9,4.8,0,13.2,1.5,11.4,9.9Zm-6.6-9.9c-1,.7-2.6,1.2-6.5,1.8s-6.3,1.4-7.1,5.1,1.5,4.1,3.3,4.1c3.9,0,8.5-2.6,9.4-6.7Z" transform="translate(-65.1 -51)" style="fill:#00539f"/><path d="M659.5,523.8h5.6l-1.4,6.4h-5.6l-3.9,18.5c-.4,1.9-.5,2.7,3.2,2.7h1.8l-1.4,6.7-4.2.2h-1.2c-7.7,0-8.5-3-7.6-7.4l4.4-20.6h-4.6l1.4-6.4h4.6l1.9-9.2h9Z" transform="translate(-65.1 -51)" style="fill:#00539f"/><path d="M678.4,523.8l-7.2,34h-8.9l7.2-34Zm.9-4h-9l1.8-8.3H681Z" transform="translate(-65.1 -51)" style="fill:#00539f"/><path d="M693.4,558.7c-9.1,0-16.2-5.6-13.6-17.9s12.1-17.9,21.2-17.9,16.2,5.7,13.6,17.9-12.1,17.9-21.2,17.9m6-28.2c-6.9,0-9.4,6-10.4,10.3s-.9,10.4,6,10.4,9.4-6,10.4-10.4.9-10.3-6-10.3" transform="translate(-65.1 -51)" style="fill:#00539f"/><path d="M746.4,557.8h-9l4.4-20.6c.5-2.5,1.3-6.7-4.4-6.7-3.9,0-7.5,2.7-8.6,7.8l-4.2,19.5h-8.9l7.2-34h8.5l-1,5h.1c1.7-2,5-5.9,11.5-5.9s11,3.9,9.4,11.4Z" transform="translate(-65.1 -51)" style="fill:#00539f"/><polygon points="25.9 223.1 404.7 224.7 407.5 220.5 27.3 221.1 25.9 223.1" style="fill:#ef3e42"/><polygon points="18.5 233.4 397.7 235 400.4 231 19.9 231.5 18.5 233.4" style="fill:#ef3e42"/><polygon points="12.8 241.4 11.4 243.3 390.5 245.4 393.4 241.3 12.8 241.4" style="fill:#ef3e42"/><polygon points="404.8 116.3 400.2 112.2 104.9 112.8 103.5 114.7 404.8 116.3" style="fill:#ef3e42"/><polygon points="96.1 125 416.3 126.6 411.9 122.7 97.5 123.1 96.1 125" style="fill:#ef3e42"/><polygon points="89 134.9 428.1 137.1 423.4 133 90.4 133 89 134.9" style="fill:#ef3e42"/><polygon points="63.2 171.1 439.8 173.2 442.5 169.3 64.5 169.2 63.2 171.1" style="fill:#ef3e42"/><polygon points="77.2 151.4 445.3 152.4 440.6 148.3 78.7 149.4 77.2 151.4" style="fill:#ef3e42"/><polygon points="70.2 161.2 446.9 162.8 449.7 158.8 71.6 159.3 70.2 161.2" style="fill:#ef3e42"/><polygon points="51.8 187 429.5 188.4 432.2 184.4 53.2 185 51.8 187" style="fill:#ef3e42"/><polygon points="44.4 197.2 422.3 198.8 425 194.9 45.8 195.4 44.4 197.2" style="fill:#ef3e42"/><polygon points="37.3 207.2 415.2 209.3 418 205.2 38.6 205.3 37.3 207.2" style="fill:#ef3e42"/><polygon points="386.9 100.3 486.8 100.3 558.9 0 558.9 100.3 669.9 100.3 564.5 157.3 564.5 254.9 495.1 195.2 384.1 254.9 450.7 157.3 386.9 100.3" style="fill:#00539f"/></g></svg>