<svg width="901" height="554" xmlns="http://www.w3.org/2000/svg" xmlns:xlink="http://www.w3.org/1999/xlink" overflow="hidden"><defs><clipPath id="clip0"><rect x="-1" y="123" width="901" height="554"/></clipPath></defs><g clip-path="url(#clip0)" transform="translate(1 -123)"><path d="M380 190 477 140 574 190 477 240Z" fill="#0070C0" fill-rule="evenodd"/><text fill="#FFFFFF" font-family="Arial,Arial_MSFontService,sans-serif" font-weight="400" font-size="15" transform="translate(429.2 178)">Is the plasticity <tspan font-size="15" x="22.3333" y="18">index of </tspan><tspan font-size="15" x="3" y="35">subgrade &lt;15</tspan></text><path d="M477.5 240.5 477.5 274.54" stroke="#3466A1" stroke-linejoin="round" stroke-miterlimit="10" fill="none" fill-rule="evenodd"/><path d="M334.5 274.5 622.06 274.5" stroke="#3466A1" stroke-linejoin="round" stroke-miterlimit="10" fill="none" fill-rule="evenodd"/><path d="M335 274.5 335 320.677 334 320.677 334 274.5ZM338.5 319.344 334.5 327.344 330.5 319.344Z" fill="#3466A1"/><text font-family="Arial,Arial_MSFontService,sans-serif" font-weight="700" font-size="16" transform="translate(337.963 270)">YES<tspan font-size="16" x="255.816" y="1">NO</tspan></text><path d="M623 274.5 623 320.677 622 320.677 622 274.5ZM626.5 319.344 622.5 327.344 618.5 319.344Z" fill="#3466A1"/><rect x="202" y="328" width="265" height="68" fill="#0070C0"/><text fill="#FFFFFF" font-family="Wingdings,Wingdings_MSFontService,sans-serif" font-weight="400" font-size="15" transform="translate(211.6 350)"><tspan font-family="Arial,Arial_MSFontService,sans-serif" font-size="15" x="18" y="0">Bond Breaker (≥1.0”) + 6” Cement </tspan><tspan font-family="Arial,Arial_MSFontService,sans-serif" font-size="15" x="18" y="18">Treated Base</tspan><tspan font-size="15" x="0" y="35"></tspan><tspan font-family="Arial,Arial_MSFontService,sans-serif" font-size="15" x="18" y="35">4” Hot Mix Asphalt Base</tspan></text><path d="M525 378 621.5 328 718 378 621.5 428Z" fill="#0070C0" fill-rule="evenodd"/><text fill="#FFFFFF" font-family="Arial,Arial_MSFontService,sans-serif" font-weight="400" font-size="15" transform="translate(574.81 366)">Is the soil type<tspan font-size="15" x="3.41333" y="18">: ML, CL, OL, </tspan><tspan font-size="15" x="5.66669" y="35">MH, CH, OH</tspan></text><path d="M0 0 0.579737 33.9503" stroke="#3466A1" stroke-linejoin="round" stroke-miterlimit="10" fill="none" fill-rule="evenodd" transform="matrix(-1 0 0 1 622.08 428.5)"/><path d="M477.5 462.5 765.06 462.5" stroke="#3466A1" stroke-linejoin="round" stroke-miterlimit="10" fill="none" fill-rule="evenodd"/><path d="M478 462.5 478 508.677 477 508.677 477 462.5ZM481.5 507.344 477.5 515.344 473.5 507.344Z" fill="#3466A1"/><text font-family="Arial,Arial_MSFontService,sans-serif" font-weight="700" font-size="16" transform="translate(481.743 457)">YES<tspan font-size="16" x="255.816" y="1">NO</tspan></text><path d="M766 462.5 766 508.677 765 508.677 765 462.5ZM769.5 507.344 765.5 515.344 761.5 507.344Z" fill="#3466A1"/><rect x="345" y="516" width="265" height="49" fill="#0070C0"/><text fill="#FFFFFF" font-family="Wingdings,Wingdings_MSFontService,sans-serif" font-weight="400" font-size="15" transform="translate(354.4 537)"><tspan font-family="Arial,Arial_MSFontService,sans-serif" font-size="15" x="18" y="0">Bond Breaker (≥1.0”) + Cement </tspan><tspan font-family="Arial,Arial_MSFontService,sans-serif" font-size="15" x="18" y="18">Treated Base (≥6.0”) </tspan></text><rect x="633" y="516" width="264" height="68" fill="#0070C0"/><text fill="#FFFFFF" font-family="Wingdings,Wingdings_MSFontService,sans-serif" font-weight="400" font-size="15" transform="translate(642.18 538)"><tspan font-family="Arial,Arial_MSFontService,sans-serif" font-size="15" x="18" y="0">Bond Breaker (≥1.0”) + Cement </tspan><tspan font-family="Arial,Arial_MSFontService,sans-serif" font-size="15" x="18" y="18">Treated Base (≥6.0”)</tspan><tspan font-size="15" x="0" y="35"></tspan><tspan font-family="Arial,Arial_MSFontService,sans-serif" font-size="15" x="18" y="35">Hot Mix Asphalt Base (≥4.0”)</tspan></text><rect x="493.5" y="585.5" width="404" height="88" stroke="#3466A1" stroke-width="0.666667" stroke-linejoin="round" stroke-miterlimit="10" stroke-dasharray="2 0.666667" fill="#FFFFFF"/><text font-family="Wingdings,Wingdings_MSFontService,sans-serif" font-weight="400" font-size="16" transform="translate(502.275 606)"><tspan font-family="Arial,Arial_MSFontService,sans-serif" font-size="16" x="18" y="0">Engineer </tspan><tspan font-family="Arial,Arial_MSFontService,sans-serif" font-size="16" x="86.1667" y="0">is able to</tspan><tspan font-family="Arial,Arial_MSFontService,sans-serif" font-size="16" x="154.5" y="0">increase the base thickness, but </tspan><tspan font-size="16" x="0" y="19"></tspan><tspan font-family="Arial,Arial_MSFontService,sans-serif" font-size="16" x="18" y="19">TxCRCP</tspan><tspan font-family="Arial,Arial_MSFontService,sans-serif" font-size="16" x="81" y="19">-</tspan><tspan font-family="Arial,Arial_MSFontService,sans-serif" font-size="16" x="86.3333" y="19">ME design input should always be</tspan><tspan font-size="16" x="48" y="38"></tspan><tspan font-family="Arial,Arial_MSFontService,sans-serif" font-size="16" x="66" y="38">No greater than 6” in cement treated base </tspan><tspan font-size="16" x="48" y="57"></tspan><tspan font-family="Arial,Arial_MSFontService,sans-serif" font-size="16" x="66" y="57">No greater than 4” in HMA base</tspan></text><rect x="0" y="124" width="380" height="68" fill="#FFFFFF"/><text font-family="Arial,Arial_MSFontService,sans-serif" font-weight="400" font-size="16" transform="translate(22.6856 152)">Recommended<tspan font-size="24" x="-1.78667" y="29">Base Type Selection Guidelines</tspan></text></g></svg>