<svg width="956" height="527" xmlns="http://www.w3.org/2000/svg" xmlns:xlink="http://www.w3.org/1999/xlink" overflow="hidden"><defs><clipPath id="clip0"><rect x="-1" y="114" width="956" height="527"/></clipPath></defs><g clip-path="url(#clip0)" transform="translate(1 -114)"><path d="M334.5 276.5 622.06 276.5" stroke="#3466A1" stroke-linejoin="round" stroke-miterlimit="10" fill="none" fill-rule="evenodd"/><path d="M335 276.5 335 322.677 334 322.677 334 276.5ZM338.5 321.344 334.5 329.344 330.5 321.344Z" fill="#3466A1"/><text font-family="Arial,Arial_MSFontService,sans-serif" font-weight="700" font-size="16" transform="translate(338.211 272)">YES<tspan font-size="16" x="255.816" y="1">NO</tspan></text><path d="M623 276.5 623 322.677 622 322.677 622 276.5ZM626.5 321.344 622.5 329.344 618.5 321.344Z" fill="#3466A1"/><rect x="258" y="329" width="152" height="68" fill="#0070C0"/><text fill="#FFFFFF" font-family="Wingdings,Wingdings_MSFontService,sans-serif" font-weight="400" font-size="15" transform="translate(267.633 360)"><tspan font-family="Arial,Arial_MSFontService,sans-serif" font-size="15" x="18" y="0">Cement</tspan><tspan font-size="15" x="0" y="18"></tspan><tspan font-family="Arial,Arial_MSFontService,sans-serif" font-size="15" x="18" y="18">Lime</tspan><tspan font-family="Arial,Arial_MSFontService,sans-serif" font-size="15" x="49.8333" y="18">-</tspan><tspan font-family="Arial,Arial_MSFontService,sans-serif" font-size="15" x="54.6667" y="18">fly ash (FS)</tspan></text><path d="M478.5 464.5 766.06 464.5" stroke="#3466A1" stroke-linejoin="round" stroke-miterlimit="10" fill="none" fill-rule="evenodd"/><path d="M479 464.5 479 510.677 478 510.677 478 464.5ZM482.5 509.344 478.5 517.344 474.5 509.344Z" fill="#3466A1"/><text font-family="Arial,Arial_MSFontService,sans-serif" font-weight="700" font-size="16" transform="translate(481.991 459)">YES<tspan font-size="16" x="255.816" y="2">NO</tspan></text><path d="M767 464.5 767 510.677 766 510.677 766 464.5ZM770.5 509.344 766.5 517.344 762.5 509.344Z" fill="#3466A1"/><rect x="391" y="517" width="174" height="101" fill="#0070C0"/><text fill="#FFFFFF" font-family="Wingdings,Wingdings_MSFontService,sans-serif" font-weight="400" font-size="15" transform="translate(400.747 537)"><tspan font-family="Arial,Arial_MSFontService,sans-serif" font-size="15" x="18" y="0">Lime</tspan><tspan font-size="15" x="0" y="18"></tspan><tspan font-family="Arial,Arial_MSFontService,sans-serif" font-size="15" x="18" y="18">Lime</tspan><tspan font-family="Arial,Arial_MSFontService,sans-serif" font-size="15" x="49.8333" y="18">-</tspan><tspan font-family="Arial,Arial_MSFontService,sans-serif" font-size="15" x="54.6667" y="18">cement</tspan><tspan font-size="15" x="0" y="35"></tspan><tspan font-family="Arial,Arial_MSFontService,sans-serif" font-size="15" x="18" y="35">Lime</tspan><tspan font-family="Arial,Arial_MSFontService,sans-serif" font-size="15" x="49.8333" y="35">-</tspan><tspan font-family="Arial,Arial_MSFontService,sans-serif" font-size="15" x="54.6667" y="35">fly ash (FS)</tspan><tspan font-size="15" x="0" y="53"></tspan><tspan font-family="Arial,Arial_MSFontService,sans-serif" font-size="15" x="18" y="53">Cement </tspan><tspan font-size="15" x="0" y="71"></tspan><tspan font-family="Arial,Arial_MSFontService,sans-serif" font-size="15" x="18" y="71">Fly ash (CS)</tspan></text><rect x="679" y="517" width="174" height="63" fill="#0070C0"/><text fill="#FFFFFF" font-family="Wingdings,Wingdings_MSFontService,sans-serif" font-weight="400" font-size="15" transform="translate(688.527 536)"><tspan font-family="Arial,Arial_MSFontService,sans-serif" font-size="15" x="18" y="0">Lime</tspan><tspan font-size="15" x="0" y="18"></tspan><tspan font-family="Arial,Arial_MSFontService,sans-serif" font-size="15" x="18" y="18">Lime</tspan><tspan font-family="Arial,Arial_MSFontService,sans-serif" font-size="15" x="49.8333" y="18">-</tspan><tspan font-family="Arial,Arial_MSFontService,sans-serif" font-size="15" x="54.6666" y="18">cement</tspan><tspan font-size="15" x="0" y="35"></tspan><tspan font-family="Arial,Arial_MSFontService,sans-serif" font-size="15" x="18" y="35">Lime</tspan><tspan font-family="Arial,Arial_MSFontService,sans-serif" font-size="15" x="49.8333" y="35">-</tspan><tspan font-family="Arial,Arial_MSFontService,sans-serif" font-size="15" x="54.6666" y="35">fly ash (FS)</tspan></text><rect x="679.5" y="587.5" width="274" height="48" stroke="#3869A2" stroke-linejoin="round" stroke-miterlimit="10" stroke-dasharray="3 1" fill="#FFFFFF"/><text font-family="Arial,Arial_MSFontService,sans-serif" font-weight="400" font-size="16" transform="translate(688.527 608)">Recommended subgrade treatment <tspan font-size="16" x="0" y="19">thickness is greater than 8.0”.</tspan></text><path d="M381 192 477.5 142 574 192 477.5 242Z" fill="#0070C0" fill-rule="evenodd"/><text fill="#FFFFFF" font-family="Arial,Arial_MSFontService,sans-serif" font-weight="400" font-size="15" transform="translate(429.448 189)">Is the plasticity <tspan font-size="15" x="16" y="18">index &lt;15</tspan></text><path d="M477.5 242.5 477.5 276.54" stroke="#3466A1" stroke-linejoin="round" stroke-miterlimit="10" fill="none" fill-rule="evenodd"/><path d="M525 380 622 330 719 380 622 430Z" fill="#0070C0" fill-rule="evenodd"/><text fill="#FFFFFF" font-family="Arial,Arial_MSFontService,sans-serif" font-weight="400" font-size="15" transform="translate(573.807 376)">Is the plasticity <tspan font-size="15" x="16" y="18">index &lt;35</tspan></text><path d="M622.5 430.5 622.5 464.361" stroke="#3466A1" stroke-linejoin="round" stroke-miterlimit="10" fill="none" fill-rule="evenodd"/><rect x="0" y="124" width="381" height="68" fill="#FFFFFF"/><text font-family="Arial,Arial_MSFontService,sans-serif" font-weight="400" font-size="16" transform="translate(22.9333 152)">Recommended<tspan font-size="24" x="-2.00667" y="29">Subgrade Treatment Guidelines</tspan></text><path d="M494.888 121.894 838.388 121.894 838.388 139.894 494.888 139.894Z" fill="#FFFF00" fill-rule="evenodd"/><path d="M838.388 121.894 843.721 121.894 843.721 139.894 838.388 139.894Z" fill="#FFFF00" fill-rule="evenodd"/><path d="M843.721 121.894 941.888 121.894 941.888 139.894 843.721 139.894Z" fill="#FFFF00" fill-rule="evenodd"/><text font-family="Arial,Arial_MSFontService,sans-serif" font-weight="400" font-size="16" transform="translate(494.888 136)">https://ftp.dot.state.tx.us/pub/txdot/mtd/treatment<tspan font-size="16" x="343.5" y="0">-</tspan><tspan font-size="16" x="348.833" y="0">guidelines.pdf</tspan></text><path d="M646.5 547 647.5 547 647.5 548 646.5 548ZM648.5 547 649.5 547 649.5 548 648.5 548ZM650.5 547 651.5 547 651.5 548 650.5 548ZM652.5 547 653.5 547 653.5 548 652.5 548ZM654.5 547 655.5 547 655.5 548 654.5 548ZM656.5 547 657.5 547 657.5 548 656.5 548ZM658.5 547 659.5 547 659.5 548 658.5 548ZM660.5 547 661.5 547 661.5 548 660.5 548ZM662.5 547 663.5 547 663.5 548 662.5 548ZM664.5 547 665.5 547 665.5 548 664.5 548ZM666.5 547 667.5 547 667.5 548 666.5 548ZM668.5 547 669.5 547 669.5 548 668.5 548ZM670.5 547 671.5 547 671.5 548 670.5 548ZM672.5 547 672.525 547 672.525 548 672.5 548ZM671.192 543.5 679.192 547.5 671.192 551.5Z" fill="#3466A1"/><path d="M646.5 548.5 646.5 611.395" stroke="#3466A1" stroke-linejoin="round" stroke-miterlimit="10" stroke-dasharray="3 1" fill="none" fill-rule="evenodd"/><path d="M0 0 32.6919 0.000104987" stroke="#3466A1" stroke-linejoin="round" stroke-miterlimit="10" stroke-dasharray="1 1" fill="none" fill-rule="evenodd" transform="matrix(-1 0 0 1 679.192 611.5)"/></g></svg>